<svg xmlns="http://www.w3.org/2000/svg" viewBox="-137 -19 640 640">
  <rect x="-137" y="-19" width="640" height="640" rx="96" fill="#0a0a0c"/>
  <path fill="#ffffff" d="m339.57,246.11l-47.3,34.18,48.78,37.38c15.94,12.27,25.49,31.55,25.49,51.7v60c0,20.76-9.98,40.38-26.73,52.65l-163.91,119.52-110.93-73.94,179.28-117.85v41.48l-116.47,76.61,47.21,31.46,144.39-105.3c7.83-5.73,12.51-14.94,12.51-24.63v-60c0-9.4-4.44-18.47-11.93-24.2l-75.7-58-10.02-7.68,10.02-7.26,75.04-54.18c7.88-5.73,12.6-14.94,12.6-24.73v-50.93c0-10.79-5.82-20.91-15.18-26.35L186.25,40.29,34.65,132.17v295.94l82.05-52.89v-132.6l127.54-79.09v40.76l-92.89,57.61v132.17L0,491.74V112.65L185.92,0l148.21,86.06c20,11.65,32.41,33.22,32.41,56.32v50.93c0,20.86-10.07,40.62-26.97,52.79Z"/>
</svg>
